:SAMPLES-PER-SECOND 30
:FRAME-RANGE 1-4244
:FULLY-SPECIFIED
:DEGREES
1857
root  -63.1864 37.7638 30.6812 16.4885 15.7601 -1.68591
RightUpLeg  -34.1996 -2.8062 -9.09471
RightLeg  50.8997 10.5367 13.2712
RightFoot  -14.4408 0.51516 22.428
RightToes  -1.33073e-015 0 -3.6325e-017
Spine  13.448 -2.92309 -1.64867
Spine1  2.34537 -2.67479 -1.26472
HEad  10.8231 12.6826 -8.62189
LeftShoulder1  1.0991 -0.664232 -21.5711
LeftArm  12.5482 10.2655 -46.1274
LeftForeArm  23.5123 -13.0545 -10.1587
LeftHand  -0.172561 3.33781 9.1266
RightShoulder  1.41006 1.0717 26.1451
RightArm  -32.8922 -11.8544 44.6627
RightForeArm  51.9988 5.02276 2.39243
RightHand  -0.232106 -3.73782 -15.5817
LeftUpLeg  -22.7086 3.57263 -1.71669
LeftLeg  35.2169 -9.1526 -6.50044
LeftFoot  -21.0767 0.309474 2.14738
LeftToes  2.72522e-012 8.43823e-011 6.24977e-012
1858
root  -64.1114 37.4203 31.1585 16.7461 18.3519 -2.49908
RightUpLeg  -33.5868 -1.5734 -11.8239
RightLeg  47.1369 5.54913 6.06591
RightFoot  -14.324 0.352303 17.1709
RightToes  -1.33073e-015 0 -3.6325e-017
Spine  13.5023 -2.81054 -0.877948
Spine1  1.39604 -2.74138 -0.00774694
HEad  8.90429 12.4489 -8.44491
LeftShoulder1  1.20555 -1.08097 -21.3565
LeftArm  16.0937 10.0644 -46.7428
LeftForeArm  21.2121 -14.3741 -9.61088
LeftHand  -0.181338 3.30262 9.48264
RightShoulder  1.33934 0.885554 25.866
RightArm  -34.002 -13.1187 44.1874
RightForeArm  51.1927 6.36647 2.22304
RightHand  -0.226079 -3.8361 -16.1174
LeftUpLeg  -22.0256 -3.33495 1.05248
LeftLeg  33.2217 -3.53657 -2.10734
LeftFoot  -24.9137 0.610067 3.86547
LeftToes  2.72522e-012 8.43823e-011 6.24977e-012
1859
root  -65.0812 37.2436 31.6654 16.804 19.0471 -2.04749
RightUpLeg  -32.3037 0.247647 -15.4685
RightLeg  40.1463 -1.77213 -1.87281
RightFoot  -13.5683 0.118194 10.8038
RightToes  -1.33073e-015 0 -3.6325e-017
Spine  15.3296 -2.22475 -1.32228
Spine1  0.365933 -2.26891 0.437727
HEad  5.7939 12.6232 -8.08726
LeftShoulder1  1.31728 -1.59388 -20.7226
LeftArm  14.3597 8.46938 -47.2472
LeftForeArm  23.1623 -13.3025 -10.1741
LeftHand  -0.175298 3.35647 9.37189
RightShoulder  1.36356 0.871531 26.5853
RightArm  -34.3106 -11.3509 43.6742
RightForeArm  50.245 5.45755 1.79524
RightHand  -0.199887 -4.14071 -17.6222
LeftUpLeg  -21.5509 -5.25346 2.64094
LeftLeg  33.0685 -2.40385 -1.30584
LeftFoot  -26.6667 0.3906 1.71066
LeftToes  2.72522e-012 8.43823e-011 6.24977e-012
1860
root  -66.0315 37.1575 32.239 17.0169 18.3874 -1.90454
RightUpLeg  -31.2588 2.4639 -18.6767
RightLeg  31.1963 -8.68188 -5.86253
RightFoot  -13.4238 0.0809274 9.45716
RightToes  -1.33073e-015 0 -3.6325e-017
Spine  15.8579 -1.90896 -0.273175
Spine1  1.10176 -1.44751 -1.27983
HEad  2.60396 13.2854 -9.09636
LeftShoulder1  1.51504 -2.44296 -20.1583
LeftArm  9.86162 5.96314 -47.1076
LeftForeArm  26.216 -10.5272 -11.3639
LeftHand  -0.154634 3.51222 8.80659
RightShoulder  1.60081 1.62969 26.404
RightArm  -35.1799 -7.63792 44.9624
RightForeArm  50.9699 2.5782 0.623896
RightHand  -0.179095 -4.38031 -19.4897
LeftUpLeg  -21.3 -3.80331 4.30319
LeftLeg  33.3374 -3.39892 -2.03061
LeftFoot  -27.066 0.223227 0.437599
LeftToes  2.72522e-012 8.43823e-011 6.24977e-012
1861
root  -66.9201 37.1105 32.9072 17.9136 17.6805 -1.70441
RightUpLeg  -30.976 2.79274 -21.0781
RightLeg  21.9766 -12.0244 -5.48982
RightFoot  -11.5399 -0.061197 10.003
RightToes  -1.33073e-015 0 -3.6325e-017
Spine  15.4375 -1.96958 1.23002
Spine1  1.36376 -0.943482 -2.84662
HEad  1.46097 14.9223 -12.3559
LeftShoulder1  1.63186 -2.93501 -19.9394
LeftArm  5.27193 3.60705 -47.133
LeftForeArm  30.3176 -6.30983 -12.617
LeftHand  -0.126491 3.80717 8.26115
RightShoulder  1.80675 2.54547 24.8024
RightArm  -35.362 -4.38647 46.941
RightForeArm  53.9724 0.458158 -0.100263
RightHand  -0.106418 -4.82081 -19.6662
LeftUpLeg  -21.003 -2.53178 5.79432
LeftLeg  32.4795 -4.12478 -2.45764
LeftFoot  -27.2714 0.0382886 -0.898507
LeftToes  2.72522e-012 8.43823e-011 6.24977e-012
1862
root  -67.8082 37.0476 33.7044 19.0186 16.8617 -0.851196
RightUpLeg  -31.6922 0.121008 -22.1511
RightLeg  15.4467 -9.59075 -3.35338
RightFoot  -9.24347 -0.242093 9.76012
RightToes  -1.33073e-015 0 -3.6325e-017
Spine  15.1178 -2.05997 1.97889
Spine1  1.28322 -0.774124 -3.57413
HEad  0.778504 16.8622 -16.6928
LeftShoulder1  1.69993 -3.12414 -20.2509
LeftArm  3.24071 2.24223 -46.9778
LeftForeArm  33.1687 -3.89187 -12.996
LeftHand  -0.0939601 4.18907 7.5249
RightShoulder  1.8003 2.83235 23.1725
RightArm  -34.1905 -1.35267 48.558
RightForeArm  57.1743 0.511102 0.297325
RightHand  -0.0819685 -4.94266 -18.3732
LeftUpLeg  -20.0447 -2.36313 6.65894
LeftLeg  30.7071 -4.04138 -2.22917
LeftFoot  -27.308 -0.234063 -2.83932
LeftToes  2.72522e-012 8.43823e-011 6.24977e-012
1863
root  -68.8317 36.8675 34.6563 20.2489 16.1383 0.270752
RightUpLeg  -33.3726 -3.11617 -21.703
RightLeg  13.1528 -4.43349 -2.1301
RightFoot  -11.0851 -0.105651 13.3682
RightToes  -1.33073e-015 0 -3.6325e-017
Spine  14.6153 -2.29413 2.01
Spine1  1.47736 -0.795352 -4.28842
HEad  -1.38731 18.7833 -21.3221
LeftShoulder1  1.796 -3.39444 -20.6454
LeftArm  3.49056 1.87238 -46.3914
LeftForeArm  33.5392 -3.71797 -13.0813
LeftHand  -0.0856826 4.28822 7.2596
RightShoulder  1.82592 3.11791 22.2166
RightArm  -31.9182 1.94775 49.7003
RightForeArm  57.8868 1.44996 1.41272
RightHand  -0.107046 -4.77858 -18.233
LeftUpLeg  -19.2764 -2.02525 7.60007
LeftLeg  29.6355 -4.51907 -2.42004
LeftFoot  -27.4142 -0.586341 -5.31719
LeftToes  2.72522e-012 8.43823e-011 6.24977e-012
1864
root  -69.941 36.6603 35.6626 21.2027 15.8799 0.941528
RightUpLeg  -35.5112 -1.26958 -22.3322
RightLeg  15.8195 -6.12239 -2.2312
RightFoot  -9.59266 -0.35621 18.8765
RightToes  -1.33073e-015 0 -3.6325e-017
Spine  14.4628 -2.45762 2.12769
Spine1  1.65342 -0.984004 -4.16753
HEad  -3.64672 20.2348 -25.0136
LeftShoulder1  1.87446 -3.62911 -20.8863
LeftArm  4.85004 1.78827 -45.6793
LeftForeArm  32.2737 -4.28128 -13.1893
LeftHand  -0.0997836 4.05539 7.31302
RightShoulder  1.88804 3.4474 21.7265
RightArm  -29.1488 5.43131 50.668
RightForeArm  57.1525 2.15711 2.6955
RightHand  -0.112483 -4.7732 -19.2406
LeftUpLeg  -18.7785 -1.46938 9.28324
LeftLeg  29.3755 -5.4529 -2.96089
LeftFoot  -27.0542 -0.964298 -8.15522
LeftToes  2.72522e-012 8.43823e-011 6.24977e-012
1865
root  -71.0869 36.4561 36.6995 21.3026 16.5484 1.18195
RightUpLeg  -37.7474 0.873629 -21.6348
RightLeg  21.478 -6.70991 -3.11162
RightFoot  -6.29271 -1.05338 22.6344
RightToes  -1.33073e-015 0 -3.6325e-017
Spine  15.1342 -2.70609 2.61376
Spine1  1.58897 -1.37929 -3.48821
HEad  -5.07793 21.1363 -27.0736
LeftShoulder1  1.9747 -3.91592 -21.2233
LeftArm  5.56771 1.51445 -45.0268
LeftForeArm  31.5759 -4.79508 -13.1712
LeftHand  -0.0997687 4.0023 7.03186
RightShoulder  1.9064 3.55554 21.5441
RightArm  -26.9496 9.48112 51.708
RightForeArm  56.5875 1.59393 3.39572
RightHand  -0.136625 -4.66985 -20.5373
LeftUpLeg  -18.4399 -2.53429 11.8391
LeftLeg  30.4794 -5.76988 -3.30629
LeftFoot  -25.8113 -1.3504 -11.8217
LeftToes  2.72522e-012 8.43823e-011 6.24977e-012
1866
root  -72.226 36.2067 37.8469 20.424 16.8578 1.03479
RightUpLeg  -40.1974 -0.920657 -18.0304
RightLeg  29.7535 -3.73759 -2.53795
RightFoot  -8.92768 -0.494415 20.3626
RightToes  -1.33073e-015 0 -3.6325e-017
Spine  16.2923 -3.03342 2.98826
Spine1  1.3564 -1.50977 -3.79116
HEad  -5.356 22.4965 -27.8288
LeftShoulder1  2.06887 -4.1095 -21.8168
LeftArm  4.74305 1.02147 -44.4297
LeftForeArm  31.784 -4.70857 -13.0587
LeftHand  -0.0945582 4.02317 7.17696
RightShoulder  2.00509 3.89107 21.6337
RightArm  -25.565 14.9827 52.661
RightForeArm  55.4018 -1.80153 3.04767
RightHand  -0.227899 -4.20457 -21.499
LeftUpLeg  -17.5615 -4.60511 14.5779
LeftLeg  32.73 -4.97032 -3.07285
LeftFoot  -24.0399 -1.66369 -16.1511
LeftToes  2.72522e-012 8.43823e-011 6.24977e-012
1867
root  -73.2418 36.0882 39.0727 19.381 16.5196 0.767029
RightUpLeg  -40.5797 -1.55622 -14.9774
RightLeg  34.7505 -1.73747 -1.54404
RightFoot  -12.27 0.0651823 18.2519
RightToes  -1.33073e-015 0 -3.6325e-017
Spine  16.4823 -3.19872 3.19474
Spine1  1.89471 -1.56125 -4.19237
HEad  -4.26906 24.5027 -26.9168
LeftShoulder1  2.07083 -4.19532 -21.5048
LeftArm  3.60316 1.15892 -44.7068
LeftForeArm  31.5767 -4.37341 -12.9568
LeftHand  -0.0905488 4.0706 7.37648
RightShoulder  2.08623 4.34799 20.9974
RightArm  -26.3693 19.88 55.783
RightForeArm  56.4907 -5.38672 1.15757
RightHand  -0.183866 -4.43051 -21.2003
LeftUpLeg  -16.2192 -7.14574 16.4594
LeftLeg  34.634 -2.17686 -1.24564
LeftFoot  -20.5754 -1.4343 -19.1224
LeftToes  2.72522e-012 8.43823e-011 6.24977e-012
1868
root  -74.0823 36.1773 40.285 19.0075 17.0002 1.03522
RightUpLeg  -39.6304 -2.75772 -12.6898
RightLeg  37.1519 -0.546052 -0.704165
RightFoot  -14.8563 0.393752 16.0406
RightToes  -1.33073e-015 0 -3.6325e-017
Spine  15.9727 -3.36311 3.13097
Spine1  2.50283 -2.00689 -3.42367
HEad  -2.01684 26.121 -25.2249
LeftShoulder1  2.06063 -4.12534 -21.6354
LeftArm  3.40995 1.24397 -45.3042
LeftForeArm  31.5935 -4.42272 -12.9117
LeftHand  -0.0946342 4.16154 7.423
RightShoulder  2.04739 4.26676 20.7588
RightArm  -26.2429 23.9048 58.2173
RightForeArm  58.1512 -5.19607 0.350704
RightHand  0.0121908 -5.52342 -19.8007
LeftUpLeg  -16.7536 -10.8579 16.8378
LeftLeg  38.2364 3.05891 2.96757
LeftFoot  -14.8636 -0.482022 -18.4164
LeftToes  2.72522e-012 8.43823e-011 6.24977e-012
1869
root  -74.7952 36.3991 41.4454 18.4229 16.3646 1.01733
RightUpLeg  -37.9607 -2.39808 -10.8261
RightLeg  37.7333 0.0979496 -0.181541
RightFoot  -16.3749 0.510119 14.0799
RightToes  -1.33073e-015 0 -3.6325e-017
Spine  16.3857 -3.07194 3.56545
Spine1  2.3226 -1.5862 -3.88128
HEad  -1.0346 27.1023 -24.1556
LeftShoulder1  2.03565 -4.02305 -21.6843
LeftArm  3.64183 1.13589 -46.4718
LeftForeArm  31.5087 -4.91326 -12.8082
LeftHand  -0.105429 3.98897 7.46922
RightShoulder  2.09034 4.48039 20.5587
RightArm  -25.0345 26.3076 59.7787
RightForeArm  59.0786 -5.19447 0.519527
RightHand  0.125242 -6.25492 -18.5277
LeftUpLeg  -18.0465 -12.4367 15.5653
LeftLeg  44.0188 8.47309 9.0784
LeftFoot  -7.74525 0.294897 -7.9087
LeftToes  2.72522e-012 8.43823e-011 6.24977e-012
1870
root  -75.3468 36.6499 42.5703 18.1231 15.7945 0.739136
RightUpLeg  -35.9296 -1.03884 -9.21924
RightLeg  37.0261 -0.348609 -0.542553
RightFoot  -17.4611 0.565602 12.757
RightToes  -1.33073e-015 0 -3.6325e-017
Spine  16.2885 -2.6732 4.44751
Spine1  2.45057 -1.04443 -4.14281
HEad  -0.305297 28.3893 -23.0205
LeftShoulder1  1.98767 -3.86102 -21.6395
LeftArm  4.1074 0.941879 -48.2389
LeftForeArm  31.251 -5.36629 -12.7508
LeftHand  -0.108086 3.95991 7.54882
RightShoulder  2.19823 4.94815 20.3372
RightArm  -22.6894 27.8638 60.4456
RightForeArm  58.5385 -5.40572 1.65804
RightHand  0.130556 -6.29306 -18.4473
LeftUpLeg  -20.2318 -12.6178 13.9038
LeftLeg  49.4641 9.1039 11.6627
LeftFoot  -4.57792 0.00143471 0.442484
LeftToes  2.72522e-012 8.43823e-011 6.24977e-012
1871
root  -75.8109 37.0072 43.6691 17.874 15.4429 0.778198
RightUpLeg  -33.2916 -0.292453 -7.96999
RightLeg  35.3554 -0.535384 -0.66178
RightFoot  -17.8232 0.534394 11.544
RightToes  -1.33073e-015 0 -3.6325e-017
Spine  16.014 -2.22352 4.82584
Spine1  2.87997 -0.624163 -3.9704
HEad  0.421702 29.8355 -22.1851
LeftShoulder1  1.9168 -3.64446 -21.4729
LeftArm  5.06374 0.984117 -50.1367
LeftForeArm  30.8328 -6.13977 -12.644
LeftHand  -0.112773 3.87756 7.52372
RightShoulder  2.23383 5.18372 19.997
RightArm  -20.0343 29.3855 61.1219
RightForeArm  56.9529 -5.67742 2.96665
RightHand  0.0669905 -5.86941 -19.0586
LeftUpLeg  -22.4922 -12.213 11.7026
LeftLeg  52.7225 4.78039 7.19402
LeftFoot  -7.98399 0.10792 -2.04684
LeftToes  2.72522e-012 8.43823e-011 6.24977e-012
